<?xml version="1.0" encoding="UTF-8"?> <svg xmlns="http://www.w3.org/2000/svg" width="36" height="36" viewBox="0 0 36 36" fill="none"><path d="M0 4C0 1.79086 1.79086 0 4 0H32C34.2091 0 36 1.79086 36 4V32C36 34.2091 34.2091 36 32 36H4C1.79086 36 0 34.2091 0 32V4Z" fill="#F7F4EE"></path><path d="M23.0833 16.8333C23.5833 16.25 23.8333 15.5833 23.8333 14.9167C23.8333 14.1667 23.5833 13.5 23 13C22 12 20.1667 12 19.1667 13L17.3333 14.8333C17 15.1667 16.5 15.1667 16.1667 14.8333C15.8333 14.5 15.8333 14 16.1667 13.6667L18 11.75C18.8333 11 20 10.5 21.1667 10.5C22.3333 10.5 23.4167 11 24.25 11.75C25.0833 12.5833 25.5 13.75 25.5 14.9167C25.5 16.0833 25.0833 17.1667 24.25 18L22.4167 19.8333C22.25 20 22 20.0833 21.8333 20.0833C21.6667 20.0833 21.4167 20 21.25 19.8333C20.9167 19.5 20.9167 19 21.25 18.6667L23.0833 16.8333Z" fill="#031F39"></path><path d="M11.75 18L13.5833 16.1667C13.9167 15.8333 14.4167 15.8333 14.75 16.1667C15.0833 16.5 15.0833 17 14.75 17.3333L12.9167 19.25C12.4167 19.75 12.0833 20.4167 12.0833 21.1667C12.0833 21.9167 12.3333 22.5833 12.9167 23.0833C14 24.1667 15.6667 24.1667 16.75 23.0833L18.5833 21.25C18.9167 20.9167 19.4167 20.9167 19.75 21.25C20.0833 21.5833 20.0833 22.0833 19.75 22.4167L17.9167 24.25C17.0833 25.0833 15.9167 25.5 14.8333 25.5C13.75 25.5 12.5833 25.0833 11.75 24.25C10.9167 23.4167 10.5 22.3333 10.5 21.1667C10.5 19.9167 10.9167 18.8333 11.75 18Z" fill="#031F39"></path><path d="M15.75 20.25C15.9167 20.4167 16.0833 20.5 16.3333 20.5C16.5833 20.5 16.75 20.4167 16.9167 20.25L20.25 16.9167C20.5833 16.5833 20.5833 16.0833 20.25 15.75C19.9167 15.4167 19.4167 15.4167 19.0833 15.75L15.75 19.0833C15.4167 19.4167 15.4167 19.9167 15.75 20.25Z" fill="#031F39"></path></svg> 