<?xml version="1.0" encoding="UTF-8"?> <svg xmlns="http://www.w3.org/2000/svg" width="36" height="36" viewBox="0 0 36 36" fill="none"><path d="M0 4C0 1.79086 1.79086 0 4 0H32C34.2091 0 36 1.79086 36 4V32C36 34.2091 34.2091 36 32 36H4C1.79086 36 0 34.2091 0 32V4Z" fill="#F7F4EE"></path><path fill-rule="evenodd" clip-rule="evenodd" d="M12.1667 17.1667H15.5C16.4167 17.1667 17.1667 16.4167 17.1667 15.5V12.1667C17.1667 11.25 16.4167 10.5 15.5 10.5H12.1667C11.25 10.5 10.5 11.25 10.5 12.1667V15.5C10.5 16.4167 11.25 17.1667 12.1667 17.1667ZM12.1667 12.1667H15.5V15.5H12.1667V12.1667ZM12.1667 25.5H15.5C16.4167 25.5 17.1667 24.75 17.1667 23.8333V20.5C17.1667 19.5833 16.4167 18.8333 15.5 18.8333H12.1667C11.25 18.8333 10.5 19.5833 10.5 20.5V23.8333C10.5 24.75 11.25 25.5 12.1667 25.5ZM12.1667 20.5H15.5V23.8333H12.1667V20.5ZM18.8333 15.5V12.1667C18.8333 11.25 19.5833 10.5 20.5 10.5H23.8333C24.75 10.5 25.5 11.25 25.5 12.1667V15.5C25.5 16.4167 24.75 17.1667 23.8333 17.1667H20.5C19.5833 17.1667 18.8333 16.4167 18.8333 15.5ZM20.5 15.5H23.8333V12.1667H20.5V15.5ZM25.5 25.0833V24.25C25.5 24.0167 25.3167 23.8333 25.0833 23.8333H24.25C24.0167 23.8333 23.8333 24.0167 23.8333 24.25V25.0833C23.8333 25.3167 24.0167 25.5 24.25 25.5H25.0833C25.3167 25.5 25.5 25.3167 25.5 25.0833ZM18.8333 20.0833V19.25C18.8333 19.0167 19.0167 18.8333 19.25 18.8333H20.0833C20.3167 18.8333 20.5 19.0167 20.5 19.25V20.0833C20.5 20.3167 20.3167 20.5 20.0833 20.5H19.25C19.0167 20.5 18.8333 20.3167 18.8333 20.0833ZM21.75 20.5H20.9167C20.6833 20.5 20.5 20.6833 20.5 20.9167V21.75C20.5 21.9833 20.6833 22.1667 20.9167 22.1667H21.75C21.9833 22.1667 22.1667 21.9833 22.1667 21.75V20.9167C22.1667 20.6833 21.9833 20.5 21.75 20.5ZM18.8333 23.4167V22.5833C18.8333 22.35 19.0167 22.1667 19.25 22.1667H20.0833C20.3167 22.1667 20.5 22.35 20.5 22.5833V23.4167C20.5 23.65 20.3167 23.8333 20.0833 23.8333H19.25C19.0167 23.8333 18.8333 23.65 18.8333 23.4167ZM20.9167 25.5H21.75C21.9833 25.5 22.1667 25.3167 22.1667 25.0833V24.25C22.1667 24.0167 21.9833 23.8333 21.75 23.8333H20.9167C20.6833 23.8333 20.5 24.0167 20.5 24.25V25.0833C20.5 25.3167 20.6833 25.5 20.9167 25.5ZM23.4167 23.8333H22.5833C22.35 23.8333 22.1667 23.65 22.1667 23.4167V22.5833C22.1667 22.35 22.35 22.1667 22.5833 22.1667H23.4167C23.65 22.1667 23.8333 22.35 23.8333 22.5833V23.4167C23.8333 23.65 23.65 23.8333 23.4167 23.8333ZM23.4167 18.8333H22.5833C22.35 18.8333 22.1667 19.0167 22.1667 19.25V20.0833C22.1667 20.3167 22.35 20.5 22.5833 20.5H23.4167C23.65 20.5 23.8333 20.3167 23.8333 20.0833V19.25C23.8333 19.0167 23.65 18.8333 23.4167 18.8333ZM25.0833 22.1667H24.25C24.0167 22.1667 23.8333 21.9833 23.8333 21.75V20.9167C23.8333 20.6833 24.0167 20.5 24.25 20.5H25.0833C25.3167 20.5 25.5 20.6833 25.5 20.9167V21.75C25.5 21.9833 25.3167 22.1667 25.0833 22.1667Z" fill="#031F39"></path></svg> 